<mxfile host="65bd71144e">
    <diagram id="2Yk0KxF0MGeTdWNAnj6E" name="Страница 1">
        <mxGraphModel dx="950" dy="505" grid="1" gridSize="10" guides="1" tooltips="1" connect="1" arrows="1" fold="1" page="1" pageScale="1" pageWidth="827" pageHeight="1169" math="0" shadow="0">
            <root>
                <mxCell id="0"/>
                <mxCell id="1" parent="0"/>
                <mxCell id="2" value="Конец" style="ellipse;whiteSpace=wrap;html=1;" vertex="1" parent="1">
                    <mxGeometry x="264.25" y="510" width="95.5" height="60" as="geometry"/>
                </mxCell>
                <mxCell id="3" style="edgeStyle=orthogonalEdgeStyle;rounded=0;orthogonalLoop=1;jettySize=auto;html=1;exitX=0.5;exitY=1;exitDx=0;exitDy=0;" edge="1" parent="1" source="4">
                    <mxGeometry relative="1" as="geometry">
                        <mxPoint x="312" y="100" as="targetPoint"/>
                    </mxGeometry>
                </mxCell>
                <mxCell id="4" value="Начало" style="ellipse;whiteSpace=wrap;html=1;" vertex="1" parent="1">
                    <mxGeometry x="252" width="120" height="80" as="geometry"/>
                </mxCell>
                <mxCell id="5" value="string [] Elements&lt;br&gt;string [] fill1&lt;span style=&quot;color: rgb(156, 220, 254); background-color: rgb(30, 30, 30); font-family: Consolas, &amp;quot;Courier New&amp;quot;, monospace;&quot;&gt;&lt;font style=&quot;font-size: 12px;&quot;&gt;&lt;br&gt;&lt;/font&gt;&lt;/span&gt;" style="shape=parallelogram;perimeter=parallelogramPerimeter;whiteSpace=wrap;html=1;fixedSize=1;" vertex="1" parent="1">
                    <mxGeometry x="231.75" y="100" width="160.5" height="50" as="geometry"/>
                </mxCell>
                <mxCell id="6" value="if (Elements[i].Length&amp;lt;=3)" style="rhombus;whiteSpace=wrap;html=1;" vertex="1" parent="1">
                    <mxGeometry x="217" y="270" width="190" height="80" as="geometry"/>
                </mxCell>
                <mxCell id="7" value="нет" style="text;html=1;align=center;verticalAlign=middle;resizable=0;points=[];autosize=1;strokeColor=none;fillColor=none;" vertex="1" parent="1">
                    <mxGeometry x="407" y="290" width="30" height="20" as="geometry"/>
                </mxCell>
                <mxCell id="8" value="" style="endArrow=classic;html=1;rounded=0;entryX=1;entryY=0.5;entryDx=0;entryDy=0;" edge="1" parent="1">
                    <mxGeometry width="50" height="50" relative="1" as="geometry">
                        <mxPoint x="408" y="310" as="sourcePoint"/>
                        <mxPoint x="370" y="210" as="targetPoint"/>
                        <Array as="points">
                            <mxPoint x="438" y="310"/>
                            <mxPoint x="438" y="210"/>
                        </Array>
                    </mxGeometry>
                </mxCell>
                <mxCell id="9" value="fill1[i]=Elements[i]" style="rounded=0;whiteSpace=wrap;html=1;" vertex="1" parent="1">
                    <mxGeometry x="246.5" y="370" width="131" height="50" as="geometry"/>
                </mxCell>
                <mxCell id="10" value="да" style="text;html=1;align=center;verticalAlign=middle;resizable=0;points=[];autosize=1;strokeColor=none;fillColor=none;" vertex="1" parent="1">
                    <mxGeometry x="312" y="350" width="30" height="20" as="geometry"/>
                </mxCell>
                <mxCell id="11" value="print fill1[i]" style="shape=document;whiteSpace=wrap;html=1;boundedLbl=1;" vertex="1" parent="1">
                    <mxGeometry x="252" y="440" width="113" height="60" as="geometry"/>
                </mxCell>
                <mxCell id="12" value="for (int i=0;&lt;br&gt;i&amp;lt; Elements.Length; i++)" style="shape=hexagon;perimeter=hexagonPerimeter2;whiteSpace=wrap;html=1;fixedSize=1;fontSize=12;" vertex="1" parent="1">
                    <mxGeometry x="252" y="170" width="120" height="80" as="geometry"/>
                </mxCell>
                <mxCell id="13" style="edgeStyle=orthogonalEdgeStyle;rounded=0;orthogonalLoop=1;jettySize=auto;html=1;exitX=0.5;exitY=1;exitDx=0;exitDy=0;" edge="1" parent="1">
                    <mxGeometry relative="1" as="geometry">
                        <mxPoint x="313.15999999999985" y="370" as="targetPoint"/>
                        <mxPoint x="313.15999999999985" y="350" as="sourcePoint"/>
                        <Array as="points">
                            <mxPoint x="313.15999999999997" y="360"/>
                            <mxPoint x="313.15999999999997" y="360"/>
                        </Array>
                    </mxGeometry>
                </mxCell>
                <mxCell id="14" style="edgeStyle=orthogonalEdgeStyle;rounded=0;orthogonalLoop=1;jettySize=auto;html=1;exitX=0.5;exitY=1;exitDx=0;exitDy=0;" edge="1" parent="1">
                    <mxGeometry relative="1" as="geometry">
                        <mxPoint x="311.9999999999998" y="170" as="targetPoint"/>
                        <mxPoint x="311.9999999999998" y="150" as="sourcePoint"/>
                        <Array as="points">
                            <mxPoint x="311.99999999999994" y="160"/>
                            <mxPoint x="311.99999999999994" y="160"/>
                        </Array>
                    </mxGeometry>
                </mxCell>
                <mxCell id="15" style="edgeStyle=orthogonalEdgeStyle;rounded=0;orthogonalLoop=1;jettySize=auto;html=1;exitX=0.5;exitY=1;exitDx=0;exitDy=0;" edge="1" parent="1">
                    <mxGeometry relative="1" as="geometry">
                        <mxPoint x="311.30999999999995" y="270" as="targetPoint"/>
                        <mxPoint x="311.30999999999995" y="250" as="sourcePoint"/>
                        <Array as="points">
                            <mxPoint x="311.30999999999995" y="260"/>
                            <mxPoint x="311.30999999999995" y="260"/>
                        </Array>
                    </mxGeometry>
                </mxCell>
                <mxCell id="16" style="edgeStyle=orthogonalEdgeStyle;rounded=0;orthogonalLoop=1;jettySize=auto;html=1;exitX=0.5;exitY=1;exitDx=0;exitDy=0;" edge="1" parent="1">
                    <mxGeometry relative="1" as="geometry">
                        <mxPoint x="312.05999999999995" y="440" as="targetPoint"/>
                        <mxPoint x="312.05999999999995" y="420" as="sourcePoint"/>
                        <Array as="points">
                            <mxPoint x="312.05999999999995" y="430"/>
                            <mxPoint x="312.05999999999995" y="430"/>
                        </Array>
                    </mxGeometry>
                </mxCell>
                <mxCell id="17" style="edgeStyle=orthogonalEdgeStyle;rounded=0;orthogonalLoop=1;jettySize=auto;html=1;exitX=0.5;exitY=1;exitDx=0;exitDy=0;" edge="1" parent="1">
                    <mxGeometry relative="1" as="geometry">
                        <mxPoint x="311.9999999999998" y="510" as="targetPoint"/>
                        <mxPoint x="311.9999999999998" y="490" as="sourcePoint"/>
                        <Array as="points">
                            <mxPoint x="311.99999999999994" y="500"/>
                            <mxPoint x="311.99999999999994" y="500"/>
                        </Array>
                    </mxGeometry>
                </mxCell>
                <mxCell id="18" value="Конец" style="ellipse;whiteSpace=wrap;html=1;" vertex="1" parent="1">
                    <mxGeometry x="264.25" y="510" width="95.5" height="60" as="geometry"/>
                </mxCell>
                <mxCell id="19" style="edgeStyle=orthogonalEdgeStyle;rounded=0;orthogonalLoop=1;jettySize=auto;html=1;exitX=0.5;exitY=1;exitDx=0;exitDy=0;" edge="1" parent="1" source="20">
                    <mxGeometry relative="1" as="geometry">
                        <mxPoint x="312" y="100" as="targetPoint"/>
                    </mxGeometry>
                </mxCell>
                <mxCell id="20" value="Начало" style="ellipse;whiteSpace=wrap;html=1;" vertex="1" parent="1">
                    <mxGeometry x="252" width="120" height="80" as="geometry"/>
                </mxCell>
                <mxCell id="21" value="string [] Elements&lt;br&gt;string [] fill1&lt;span style=&quot;color: rgb(156, 220, 254); background-color: rgb(30, 30, 30); font-family: Consolas, &amp;quot;Courier New&amp;quot;, monospace;&quot;&gt;&lt;font style=&quot;font-size: 12px;&quot;&gt;&lt;br&gt;&lt;/font&gt;&lt;/span&gt;" style="shape=parallelogram;perimeter=parallelogramPerimeter;whiteSpace=wrap;html=1;fixedSize=1;" vertex="1" parent="1">
                    <mxGeometry x="231.75" y="100" width="160.5" height="50" as="geometry"/>
                </mxCell>
                <mxCell id="22" value="if (Elements[i].Length&amp;lt;=3)" style="rhombus;whiteSpace=wrap;html=1;" vertex="1" parent="1">
                    <mxGeometry x="217" y="270" width="190" height="80" as="geometry"/>
                </mxCell>
                <mxCell id="23" value="нет" style="text;html=1;align=center;verticalAlign=middle;resizable=0;points=[];autosize=1;strokeColor=none;fillColor=none;" vertex="1" parent="1">
                    <mxGeometry x="407" y="290" width="30" height="20" as="geometry"/>
                </mxCell>
                <mxCell id="24" value="" style="endArrow=classic;html=1;rounded=0;entryX=1;entryY=0.5;entryDx=0;entryDy=0;" edge="1" parent="1">
                    <mxGeometry width="50" height="50" relative="1" as="geometry">
                        <mxPoint x="408" y="310" as="sourcePoint"/>
                        <mxPoint x="370" y="210" as="targetPoint"/>
                        <Array as="points">
                            <mxPoint x="438" y="310"/>
                            <mxPoint x="438" y="210"/>
                        </Array>
                    </mxGeometry>
                </mxCell>
                <mxCell id="25" value="fill1[i]=Elements[i]" style="rounded=0;whiteSpace=wrap;html=1;" vertex="1" parent="1">
                    <mxGeometry x="246.5" y="370" width="131" height="50" as="geometry"/>
                </mxCell>
                <mxCell id="26" value="да" style="text;html=1;align=center;verticalAlign=middle;resizable=0;points=[];autosize=1;strokeColor=none;fillColor=none;" vertex="1" parent="1">
                    <mxGeometry x="312" y="350" width="30" height="20" as="geometry"/>
                </mxCell>
                <mxCell id="27" value="print fill1[i]" style="shape=document;whiteSpace=wrap;html=1;boundedLbl=1;" vertex="1" parent="1">
                    <mxGeometry x="252" y="440" width="113" height="60" as="geometry"/>
                </mxCell>
                <mxCell id="28" value="for (int i=0;&lt;br&gt;i&amp;lt; Elements.Length; i++)" style="shape=hexagon;perimeter=hexagonPerimeter2;whiteSpace=wrap;html=1;fixedSize=1;fontSize=12;" vertex="1" parent="1">
                    <mxGeometry x="252" y="170" width="120" height="80" as="geometry"/>
                </mxCell>
                <mxCell id="29" style="edgeStyle=orthogonalEdgeStyle;rounded=0;orthogonalLoop=1;jettySize=auto;html=1;exitX=0.5;exitY=1;exitDx=0;exitDy=0;" edge="1" parent="1">
                    <mxGeometry relative="1" as="geometry">
                        <mxPoint x="313.15999999999985" y="370" as="targetPoint"/>
                        <mxPoint x="313.15999999999985" y="350" as="sourcePoint"/>
                        <Array as="points">
                            <mxPoint x="313.15999999999997" y="360"/>
                            <mxPoint x="313.15999999999997" y="360"/>
                        </Array>
                    </mxGeometry>
                </mxCell>
                <mxCell id="30" style="edgeStyle=orthogonalEdgeStyle;rounded=0;orthogonalLoop=1;jettySize=auto;html=1;exitX=0.5;exitY=1;exitDx=0;exitDy=0;" edge="1" parent="1">
                    <mxGeometry relative="1" as="geometry">
                        <mxPoint x="311.9999999999998" y="170" as="targetPoint"/>
                        <mxPoint x="311.9999999999998" y="150" as="sourcePoint"/>
                        <Array as="points">
                            <mxPoint x="311.99999999999994" y="160"/>
                            <mxPoint x="311.99999999999994" y="160"/>
                        </Array>
                    </mxGeometry>
                </mxCell>
                <mxCell id="31" style="edgeStyle=orthogonalEdgeStyle;rounded=0;orthogonalLoop=1;jettySize=auto;html=1;exitX=0.5;exitY=1;exitDx=0;exitDy=0;" edge="1" parent="1">
                    <mxGeometry relative="1" as="geometry">
                        <mxPoint x="311.30999999999995" y="270" as="targetPoint"/>
                        <mxPoint x="311.30999999999995" y="250" as="sourcePoint"/>
                        <Array as="points">
                            <mxPoint x="311.30999999999995" y="260"/>
                            <mxPoint x="311.30999999999995" y="260"/>
                        </Array>
                    </mxGeometry>
                </mxCell>
                <mxCell id="32" style="edgeStyle=orthogonalEdgeStyle;rounded=0;orthogonalLoop=1;jettySize=auto;html=1;exitX=0.5;exitY=1;exitDx=0;exitDy=0;" edge="1" parent="1">
                    <mxGeometry relative="1" as="geometry">
                        <mxPoint x="312.05999999999995" y="440" as="targetPoint"/>
                        <mxPoint x="312.05999999999995" y="420" as="sourcePoint"/>
                        <Array as="points">
                            <mxPoint x="312.05999999999995" y="430"/>
                            <mxPoint x="312.05999999999995" y="430"/>
                        </Array>
                    </mxGeometry>
                </mxCell>
                <mxCell id="33" style="edgeStyle=orthogonalEdgeStyle;rounded=0;orthogonalLoop=1;jettySize=auto;html=1;exitX=0.5;exitY=1;exitDx=0;exitDy=0;" edge="1" parent="1">
                    <mxGeometry relative="1" as="geometry">
                        <mxPoint x="311.9999999999998" y="510" as="targetPoint"/>
                        <mxPoint x="311.9999999999998" y="490" as="sourcePoint"/>
                        <Array as="points">
                            <mxPoint x="311.99999999999994" y="500"/>
                            <mxPoint x="311.99999999999994" y="500"/>
                        </Array>
                    </mxGeometry>
                </mxCell>
            </root>
        </mxGraphModel>
    </diagram>
</mxfile>